<?xml version="1.0" encoding="UTF-8"?>
<svg id="Layer_1" data-name="Layer 1" xmlns="http://www.w3.org/2000/svg" xmlns:xlink="http://www.w3.org/1999/xlink" viewBox="0 0 1168.51 429.25">
  <rect width="1168.51" height="429.25" fill="#fff"/>
  <defs>
    <style>
      .cls-1 {
        clip-path: url(#clippath-2);
      }

      .cls-2 {
        fill-rule: evenodd;
      }

      .cls-2, .cls-3 {
        fill: #e6e7e8;
      }

      .cls-4 {
        fill: #5c5c5f;
      }

      .cls-5 {
        clip-path: url(#clippath-1);
      }

      .cls-6 {
        clip-path: url(#clippath);
      }

      .cls-7 {
        fill: none;
      }

      .cls-8 {
        clip-path: url(#clippath-3);
      }

      .cls-9 {
        fill: #d1d3d4;
      }

      .cls-10 {
        fill: url(#linear-gradient);
      }

      .cls-11 {
        fill: #58595b;
      }
    </style>
    <clipPath id="clippath">
      <rect class="cls-7" x="29.35" y="83.03" width="204.54" height="218.25"/>
    </clipPath>
    <clipPath id="clippath-1">
      <rect class="cls-7" x="-.36" y="103.75" width="283.38" height="376.76"/>
    </clipPath>
    <clipPath id="clippath-2">
      <polygon class="cls-7" points="88.9 253.64 88.9 193.24 141.21 163.03 193.52 193.24 193.52 253.64 141.21 283.84 88.9 253.64"/>
    </clipPath>
    <linearGradient id="linear-gradient" x1="-1412.45" y1="1529.16" x2="-1409.71" y2="1529.16" gradientTransform="translate(54119.85 58719.12) scale(38.25 -38.25)" gradientUnits="userSpaceOnUse">
      <stop offset="0" stop-color="#39c"/>
      <stop offset="1" stop-color="#016699"/>
    </linearGradient>
    <clipPath id="clippath-3">
      <rect class="cls-7" x="-.36" y="103.75" width="283.38" height="376.76"/>
    </clipPath>
  </defs>
  <g>
    <path class="cls-4" d="M232.9,138.01h16.09c3.35,0,7.25,.09,10.14,.46,15.35,2.14,26.97,12.28,26.97,32.18,0,21.76-12.46,32.46-26.32,35.25-3.44,.65-8.09,.93-12.09,.93h-14.79v-68.82Zm17.95,63.52c17.3,0,28.64-11.16,28.64-30.69,0-18.04-9.86-27.53-28.46-27.53h-12.09v58.22h11.9Z"/>
    <path class="cls-4" d="M328.79,200.41l1.4,4.37c-5.3,2.51-10.32,3.35-15.44,3.35-14.04,0-20.27-7.53-20.27-24.74,0-18.6,8-26.13,20.18-26.13,10.79,0,16.09,6.23,16.83,18.51,.19,3.07,.19,5.12,.19,8.09h-31.34c.37,14.6,5.49,19.25,14.79,19.25,5.21,0,9.49-.84,13.67-2.7Zm-28.27-21.21h25.39c-.28-13.02-3.53-17.02-11.53-17.02s-13.3,4.65-13.86,17.02Z"/>
    <path class="cls-4" d="M381.8,181.53c0,16.65-7.07,26.6-22.69,26.6-3.81,0-6.98-.28-9.95-.93v18.23l-5.95,.84v-66.4c6.04-1.86,10.69-2.6,17.02-2.6,13.11,0,21.58,6.04,21.58,24.27Zm-6.14,.93c0-14.79-5.58-20.27-16.74-20.27-3.72,0-6.42,.19-9.77,1.12v38.69c4,.93,7.07,1.3,10.51,1.3,9.77,0,16-5.95,16-20.83Z"/>
    <path class="cls-4" d="M419.37,207.57l-1.12-4.74c-5.39,3.72-10.23,5.3-15.16,5.3-8,0-14.04-3.72-14.04-14.6,0-9.76,7.72-14.69,19.62-14.69,3.35,0,6.79,.47,9.39,1.02v-6.14c0-7.25-3.25-11.53-11.81-11.53-3.63,0-7.91,.93-11.9,3.16l-1.77-4.09c4.74-2.7,9.77-4,14.97-4,9.58,0,15.81,4.74,16.37,13.58,.09,2.14,.09,4.28,.09,7.44v17.58c0,4.09,.19,6.23,1.21,10.97l-5.86,.74Zm-14.23-4.28c4,0,8.46-1.3,12.93-4.37v-14.6c-2.6-.46-5.67-.74-9.77-.74-8.09,0-13.11,2.79-13.11,9.49s3.44,10.23,9.95,10.23Z"/>
    <path class="cls-4" d="M438.25,159.02l5.95-.84v5.95c2.32-5.02,6.04-6.88,9.77-6.88,2.42,0,3.81,.56,5.02,1.4l-.65,5.02c-1.49-.46-2.79-.74-4.93-.74-4.28,0-7.35,2.33-9.21,6.6v37.29h-5.95v-47.8Z"/>
    <path class="cls-4" d="M490.88,205.8c-2.6,1.3-5.58,2.33-9.58,2.33-7.53,0-10.7-4.37-11.07-9.76-.19-2.51-.19-4.74-.19-8.09v-27.06h-7.07v-4.65h7.07v-12l5.95-1.02v13.02h14.32l-.74,4.65h-13.58v29.48c0,8,2.14,10.42,7.72,10.42,1.95,0,3.72-.28,5.95-1.21l1.21,3.91Z"/>
    <path class="cls-4" d="M564.36,177.62v29.2h-5.95v-31.34c0-9.67-3.72-13.3-11.16-13.3-4.84,0-8.56,1.21-12.93,4.46,.37,1.12,.56,2.33,.65,3.63,.19,2.14,.19,4.18,.19,7.35v29.2h-5.95v-31.34c0-9.67-3.63-13.3-11.44-13.3-4.28,0-8,1.02-11.72,3.63v41.01h-5.95v-48.08l5.95-.84v3.53c4.09-2.7,8.74-4.19,13.95-4.19,5.95,0,10.42,1.67,12.93,5.77,4.93-3.81,10.23-5.77,16.55-5.77,8.37,0,13.76,3.44,14.69,13.02,.19,2.14,.19,4.18,.19,7.35Z"/>
    <path class="cls-4" d="M608.25,200.41l1.39,4.37c-5.3,2.51-10.32,3.35-15.44,3.35-14.04,0-20.27-7.53-20.27-24.74,0-18.6,8-26.13,20.18-26.13,10.79,0,16.09,6.23,16.83,18.51,.19,3.07,.19,5.12,.19,8.09h-31.34c.37,14.6,5.49,19.25,14.79,19.25,5.21,0,9.49-.84,13.67-2.7Zm-28.27-21.21h25.39c-.28-13.02-3.53-17.02-11.53-17.02s-13.3,4.65-13.86,17.02Z"/>
    <path class="cls-4" d="M659.4,177.62v29.2h-5.95v-31.34c0-9.67-3.72-13.3-12.18-13.3-4.56,0-8.56,1.58-12.65,4.84v39.8h-5.95v-48.08l5.95-.84v4.28c4.18-3.07,9.39-4.93,14.88-4.93,9.02,0,14.88,3.44,15.72,13.02,.19,2.14,.19,4.18,.19,7.35Z"/>
    <path class="cls-4" d="M696.13,205.8c-2.6,1.3-5.58,2.33-9.58,2.33-7.53,0-10.69-4.37-11.07-9.76-.19-2.51-.19-4.74-.19-8.09v-27.06h-7.07v-4.65h7.07v-12l5.95-1.02v13.02h14.32l-.74,4.65h-13.58v29.48c0,8,2.14,10.42,7.72,10.42,1.95,0,3.72-.28,5.95-1.21l1.21,3.91Z"/>
    <path class="cls-4" d="M785.6,182.74c0,16.74-8.46,25.39-21.76,25.39s-21.76-8.65-21.76-25.39,8.46-25.39,21.76-25.39,21.76,8.56,21.76,25.39Zm-6.23,0c0-14.32-6.42-20.55-15.53-20.55s-15.53,6.23-15.53,20.55,6.32,20.46,15.53,20.46,15.53-6.23,15.53-20.46Z"/>
    <path class="cls-4" d="M805.78,152.42v6.23h11.9l-.74,4.56h-11.16v43.62h-5.95v-43.62h-7.35v-4.56h7.35v-1.3c0-1.95,0-3.91,.09-6.79,.37-8.83,6.42-14.79,14.51-14.79,2.88,0,5.77,.93,7.35,2.42l-1.67,3.44c-1.49-.65-2.98-1.02-4.74-1.02-6.14,0-9.58,3.53-9.58,11.81Z"/>
  </g>
  <g>
    <path class="cls-4" d="M625.83,228.37v71.78h6.31v-71.78h-6.31Z"/>
    <path class="cls-4" d="M686.46,262.03c-.87-9.99-6.99-13.58-16.4-13.58-5.72,0-11.15,1.94-15.52,5.14v-4.46l-6.2,.87v50.15h6.2v-41.52c4.27-3.39,8.44-5.04,13.2-5.04,8.82,0,12.7,3.78,12.7,13.87v32.69h6.21v-30.46c0-3.3,0-5.43-.19-7.66Z"/>
    <path class="cls-4" d="M724.58,295.01c-2.33,.97-4.17,1.26-6.21,1.26-5.82,0-8.05-2.52-8.05-10.86v-30.75h14.16l.78-4.85h-14.94v-13.58l-6.21,1.06v12.52h-7.37v4.85h7.37v28.22c0,3.5,0,5.82,.19,8.44,.39,5.63,3.69,10.19,11.55,10.19,4.17,0,7.27-1.07,9.99-2.43l-1.26-4.07Z"/>
    <path class="cls-4" d="M753.87,296.27c-9.7,0-15.03-4.85-15.42-20.08h32.69c0-3.1,0-5.24-.2-8.44-.77-12.8-6.3-19.3-17.55-19.3-12.71,0-21.05,7.86-21.05,27.26,0,17.94,6.5,25.8,21.14,25.8,5.34,0,10.58-.87,16.11-3.49l-1.46-4.56c-4.36,1.94-8.83,2.81-14.26,2.81Zm-.77-42.68c8.34,0,11.73,4.17,12.02,17.75h-26.48c.58-12.9,5.73-17.75,14.46-17.75Z"/>
    <path class="cls-4" d="M784.04,227.21v72.94h6.21v-73.72l-6.21,.78Z"/>
    <path class="cls-4" d="M806.45,227.21v72.94h6.2v-73.72l-6.2,.78Z"/>
    <path class="cls-4" d="M828.75,231.28v8.05c1.56,.49,4.66,.49,6.21,0v-8.05c-1.55-.49-4.65-.49-6.21,0Zm.1,18.72v50.15h6.21v-51.02l-6.21,.87Z"/>
    <path class="cls-4" d="M871.6,289.32c-.93-.09-1.86-.13-2.81-.13-.51,0-1,0-1.48,.04-.48-.03-.98-.04-1.49-.04-.95,0-1.88,.04-2.81,.13-1.72,.17-3.41,.49-5,.97-2.36-4.31-.03-8.62,.9-10.05,.74,.22,1.51,.41,2.29,.55,1.34,.24,2.73,.37,4.17,.37,.11,0,.22,0,.33-.01,3.44-.31,6.71-.55,9.76-2.31,5.06-2.93,8.54-8.35,8.54-14.26,0-2.94-.64-5.46-1.78-7.64-.51-.99-1.12-1.9-1.81-2.74h7.08l.77-4.85h-14.84c-2.33-.78-4.85-1.17-7.37-1.17-.12,0-.23,0-.35,.01-7.19,.09-13.46,3.33-16.54,8.76-1.12,2.17-1.76,4.69-1.76,7.63,0,5.43,2.71,10.18,7.08,13.09,.03,.03,.05,.06,.07,.09-2,3.18-3.96,8.95-1.15,14.53-1.49,.89-2.83,1.97-3.94,3.24-1.74,2.51-2.78,5.4-2.78,8.89,0,9.72,7.83,16.56,20.63,17.04,12.79-.49,20.62-7.32,20.62-17.04,0-3.49-1.04-6.38-2.78-8.89-3.19-3.64-8.14-5.69-13.55-6.21Zm-18.45-24.45c0-3.68,1.38-6.52,3.51-8.49,2.26-2.1,5.36-3.21,8.51-3.34,.15-.01,.3-.01,.46-.01,.2,0,.39,0,.59,.01,3.37,.09,6.39,1.24,8.51,3.34,1.95,1.94,3.15,4.7,3.15,8.2,0,7.7-5.55,11.49-11.71,11.72-.11,.01-.23,.01-.34,.01-.2,0-.4,0-.6-.01-6.19-.13-12.08-4.09-12.08-11.43Zm15.35,51.58c-.41,0-.8,0-1.19-.03-.39,.02-.79,.03-1.2,.03-8.44,0-14.26-3.59-14.26-11.16,0-5.92,4.63-10.62,10.34-11.52,1.79-.28,3.6-.3,5.4-.2,1.88,.09,3.74,0,5.61,.31,1.47,.25,2.92,.69,4.21,1.43,1.36,.77,2.34,2.1,3.22,3.37,1.35,1.95,2.13,4.23,2.13,6.61,0,7.57-5.82,11.16-14.26,11.16Z"/>
    <path class="cls-4" d="M919.16,296.27c-9.7,0-15.04-4.85-15.43-20.08h32.69c0-3.1,0-5.24-.19-8.44-.78-12.8-6.31-19.3-17.56-19.3-12.71,0-21.05,7.86-21.05,27.26,0,17.94,6.5,25.8,21.15,25.8,5.33,0,10.57-.87,16.1-3.49l-1.45-4.56c-4.37,1.94-8.83,2.81-14.26,2.81Zm-.78-42.68c8.34,0,11.74,4.17,12.03,17.75h-26.48c.58-12.9,5.72-17.75,14.45-17.75Z"/>
    <path class="cls-4" d="M987.44,262.03c-.87-9.99-6.98-13.58-16.39-13.58-5.72,0-11.15,1.94-15.52,5.14v-4.46l-6.21,.87v50.15h6.21v-41.52c4.27-3.39,8.44-5.04,13.19-5.04,8.83,0,12.71,3.78,12.71,13.87v32.69h6.21v-30.46c0-3.3,0-5.43-.2-7.66Z"/>
    <path class="cls-4" d="M1020.13,296.46c-10.18,0-15.23-6.3-15.23-21.24,0-16.2,6.11-21.63,17.07-21.63,3.79,0,7.86,.58,11.65,1.75l1.16-4.37c-3.11-1.45-7.76-2.52-12.22-2.52-15.62,0-24.06,8.34-24.06,27.35s7.66,25.71,20.37,25.71c5.82,0,10.57-.87,15.72-3.2l-1.17-4.37c-4.95,1.75-9.02,2.52-13.29,2.52Z"/>
    <path class="cls-4" d="M1063.39,296.27c-9.7,0-15.03-4.85-15.42-20.08h32.69c0-3.1,0-5.24-.19-8.44-.78-12.8-6.31-19.3-17.56-19.3-12.71,0-21.05,7.86-21.05,27.26,0,17.94,6.5,25.8,21.15,25.8,5.33,0,10.57-.87,16.1-3.49l-1.46-4.56c-4.36,1.94-8.82,2.81-14.26,2.81Zm-.77-42.68c8.34,0,11.73,4.17,12.03,17.75h-26.49c.59-12.9,5.73-17.75,14.46-17.75Z"/>
  </g>
  <g>
    <path class="cls-4" d="M275.98,274.11h-28.42l-9.02,25.12h-6.79l26.77-71.78h8.15l24.83,71.78h-7.08l-8.44-25.12Zm-26.58-5.53h24.83l-11.93-35.5-12.9,35.5Z"/>
    <path class="cls-4" d="M304.5,249.38l6.21-.87v6.21c2.42-5.24,6.31-7.18,10.19-7.18,2.52,0,3.98,.58,5.24,1.46l-.68,5.24c-1.55-.49-2.91-.78-5.14-.78-4.46,0-7.66,2.42-9.6,6.89v38.9h-6.21v-49.86Z"/>
    <path class="cls-4" d="M361.83,298.17c-2.72,1.36-5.82,2.43-9.99,2.43-7.86,0-11.15-4.56-11.54-10.19-.19-2.62-.19-4.95-.19-8.44v-28.23h-7.37v-4.85h7.37v-12.51l6.21-1.07v13.58h14.94l-.78,4.85h-14.16v30.75c0,8.34,2.23,10.86,8.05,10.86,2.04,0,3.88-.29,6.21-1.26l1.26,4.07Z"/>
    <path class="cls-4" d="M373.76,230.37c1.55-.49,4.66-.49,6.21,0v8.05c-1.55,.49-4.66,.49-6.21,0v-8.05Zm.1,18.72l6.21-.87v51.02h-6.21v-50.15Z"/>
    <path class="cls-4" d="M416.92,225.13c3.01,0,6.01,.97,7.66,2.52l-1.75,3.59c-1.55-.68-3.1-1.07-4.95-1.07-6.4,0-9.99,3.69-9.99,12.32v6.5h12.42l-.78,4.75h-11.64v45.49h-6.21v-45.49h-7.66v-4.75h7.66v-1.36c0-2.04,0-4.07,.1-7.08,.39-9.21,6.69-15.42,15.13-15.42Zm15.52,13.29v-8.05c1.55-.49,4.66-.49,6.21,0v8.05c-1.55,.49-4.66,.49-6.21,0Zm6.3,9.8v51.02h-6.21v-50.15l6.21-.87Z"/>
    <path class="cls-4" d="M452.91,274.89c0-19.01,8.44-27.35,24.06-27.35,4.46,0,9.12,1.07,12.22,2.52l-1.16,4.36c-3.78-1.16-7.86-1.75-11.64-1.75-10.96,0-17.07,5.43-17.07,21.63,0,14.94,5.04,21.24,15.23,21.24,4.27,0,8.34-.78,13.29-2.52l1.16,4.37c-5.14,2.33-9.89,3.2-15.71,3.2-12.71,0-20.37-7.28-20.37-25.71Z"/>
    <path class="cls-4" d="M502.09,230.37c1.55-.49,4.66-.49,6.21,0v8.05c-1.55,.49-4.66,.49-6.21,0v-8.05Zm.1,18.72l6.21-.87v51.02h-6.21v-50.15Z"/>
    <path class="cls-4" d="M554.27,300.01l-1.16-4.95c-5.63,3.88-10.67,5.53-15.81,5.53-8.34,0-14.65-3.88-14.65-15.23,0-10.18,8.05-15.33,20.47-15.33,3.49,0,7.08,.49,9.8,1.07v-6.4c0-7.57-3.4-12.03-12.32-12.03-3.78,0-8.25,.97-12.42,3.3l-1.84-4.27c4.95-2.81,10.19-4.17,15.62-4.17,9.99,0,16.49,4.95,17.07,14.16,.1,2.23,.1,4.46,.1,7.76v18.33c0,4.27,.19,6.5,1.26,11.45l-6.11,.78Zm-14.84-4.46c4.17,0,8.83-1.36,13.48-4.56v-15.23c-2.72-.49-5.92-.78-10.19-.78-8.44,0-13.68,2.91-13.68,9.89s3.59,10.67,10.38,10.67Z"/>
    <path class="cls-4" d="M576.78,226.29l6.21-.78v73.72h-6.21v-72.94Z"/>
  </g>
  <g>
    <path class="cls-4" d="M625.83,228.37v71.78h6.31v-71.78h-6.31Z"/>
    <path class="cls-4" d="M686.46,262.03c-.87-9.99-6.99-13.58-16.4-13.58-5.72,0-11.15,1.94-15.52,5.14v-4.46l-6.2,.87v50.15h6.2v-41.52c4.27-3.39,8.44-5.04,13.2-5.04,8.82,0,12.7,3.78,12.7,13.87v32.69h6.21v-30.46c0-3.3,0-5.43-.19-7.66Z"/>
    <path class="cls-4" d="M724.58,295.01c-2.33,.97-4.17,1.26-6.21,1.26-5.82,0-8.05-2.52-8.05-10.86v-30.75h14.16l.78-4.85h-14.94v-13.58l-6.21,1.06v12.52h-7.37v4.85h7.37v28.22c0,3.5,0,5.82,.19,8.44,.39,5.63,3.69,10.19,11.55,10.19,4.17,0,7.27-1.07,9.99-2.43l-1.26-4.07Z"/>
    <path class="cls-4" d="M753.87,296.27c-9.7,0-15.03-4.85-15.42-20.08h32.69c0-3.1,0-5.24-.2-8.44-.77-12.8-6.3-19.3-17.55-19.3-12.71,0-21.05,7.86-21.05,27.26,0,17.94,6.5,25.8,21.14,25.8,5.34,0,10.58-.87,16.11-3.49l-1.46-4.56c-4.36,1.94-8.83,2.81-14.26,2.81Zm-.77-42.68c8.34,0,11.73,4.17,12.02,17.75h-26.48c.58-12.9,5.73-17.75,14.46-17.75Z"/>
    <path class="cls-4" d="M784.04,227.21v72.94h6.21v-73.72l-6.21,.78Z"/>
    <path class="cls-4" d="M806.45,227.21v72.94h6.2v-73.72l-6.2,.78Z"/>
    <path class="cls-4" d="M828.75,231.28v8.05c1.56,.49,4.66,.49,6.21,0v-8.05c-1.55-.49-4.65-.49-6.21,0Zm.1,18.72v50.15h6.21v-51.02l-6.21,.87Z"/>
    <path class="cls-4" d="M919.16,296.27c-9.7,0-15.04-4.85-15.43-20.08h32.69c0-3.1,0-5.24-.19-8.44-.78-12.8-6.31-19.3-17.56-19.3-12.71,0-21.05,7.86-21.05,27.26,0,17.94,6.5,25.8,21.15,25.8,5.33,0,10.57-.87,16.1-3.49l-1.45-4.56c-4.37,1.94-8.83,2.81-14.26,2.81Zm-.78-42.68c8.34,0,11.74,4.17,12.03,17.75h-26.48c.58-12.9,5.72-17.75,14.45-17.75Z"/>
    <path class="cls-4" d="M987.44,262.03c-.87-9.99-6.98-13.58-16.39-13.58-5.72,0-11.15,1.94-15.52,5.14v-4.46l-6.21,.87v50.15h6.21v-41.52c4.27-3.39,8.44-5.04,13.19-5.04,8.83,0,12.71,3.78,12.71,13.87v32.69h6.21v-30.46c0-3.3,0-5.43-.2-7.66Z"/>
    <path class="cls-4" d="M1020.13,296.46c-10.18,0-15.23-6.3-15.23-21.24,0-16.2,6.11-21.63,17.07-21.63,3.79,0,7.86,.58,11.65,1.75l1.16-4.37c-3.11-1.45-7.76-2.52-12.22-2.52-15.62,0-24.06,8.34-24.06,27.35s7.66,25.71,20.37,25.71c5.82,0,10.57-.87,15.72-3.2l-1.17-4.37c-4.95,1.75-9.02,2.52-13.29,2.52Z"/>
    <path class="cls-4" d="M1063.39,296.27c-9.7,0-15.03-4.85-15.42-20.08h32.69c0-3.1,0-5.24-.19-8.44-.78-12.8-6.31-19.3-17.56-19.3-12.71,0-21.05,7.86-21.05,27.26,0,17.94,6.5,25.8,21.15,25.8,5.33,0,10.57-.87,16.1-3.49l-1.46-4.56c-4.36,1.94-8.82,2.81-14.26,2.81Zm-.77-42.68c8.34,0,11.73,4.17,12.03,17.75h-26.49c.59-12.9,5.73-17.75,14.46-17.75Z"/>
  </g>
  <g class="cls-6">
    <g class="cls-5">
      <polygon class="cls-9" points="141.21 300.07 74.85 261.74 74.85 185.12 141.21 146.82 207.57 185.12 207.57 261.74 141.21 300.07"/>
      <g class="cls-1">
        <rect class="cls-10" x="88.9" y="163.03" width="104.62" height="120.81"/>
      </g>
      <g class="cls-8">
        <path class="cls-3" d="M141.21,288.83c-.44,0-.87-.12-1.26-.34l-54.44-31.43c-.79-.45-1.26-1.28-1.26-2.19v-62.86c0-.89,.47-1.73,1.26-2.18l54.44-31.43c.78-.45,1.74-.45,2.52,0l54.43,31.43c.78,.44,1.26,1.29,1.26,2.18v62.86c0,.91-.48,1.73-1.26,2.19l-54.43,31.43c-.39,.22-.83,.34-1.26,.34m-51.91-35.42l51.91,29.97,51.91-29.97v-59.97l-51.91-29.97-51.91,29.97v59.96Z"/>
        <path class="cls-2" d="M88.48,197.07c8.71,1.79,41.37,10.8,39.98,4.71-1.37-6.06-17.3-22.4-17.3-22.4,0,0,22.83,24.29,26.45,20.61,3.63-3.66,28.27-22.86,28.27-22.86,0,0-30.14,22.58-28.7,28.63,1.46,6.06,26.87,9.94,26.87,9.94,0,0-32.87-8.13-32.72-.51,.16,7.65-7.74,58.54-7.74,58.54,0,0,9.44-61.13,2.23-62.41-7.2-1.29-39.19,24.46-39.19,24.46,0,0,39.29-28.51,34.95-30.47-4.33-1.96-41.78-10.03-33.09-8.24"/>
        <path class="cls-3" d="M123.59,274.41s-.06,0-.1,0c-.37-.06-.62-.4-.56-.77,.04-.28,2.38-15.53,3.81-30.71,2.63-28.06-.13-30.76-1.04-30.93-.15-.01-.28-.03-.45-.03-2.23,0-7.85,2.09-21.93,12.1-8.26,6.45-16.2,12.22-16.29,12.27-.29,.22-.72,.16-.94-.12-.21-.3-.17-.72,.12-.95,.08-.06,7.73-6.22,16.29-12.29,17.14-13.4,18.65-16.47,18.73-17.07-3.21-1.38-22.25-5.69-30.41-7.54-1.67-.38-2.69-.62-3.34-.8-.2-.04-.33-.06-.37-.07v-.05c-.67-.22-.65-.38-.6-.71,.04-.33,.33-.59,.68-.59,.08,0,.11,0,1.42,.27,1.59,.33,3.96,.89,6.71,1.54,8.8,2.08,22.09,5.24,28.82,5.24,2.69,0,3.39-.51,3.58-.75,.07-.09,.14-.23,.08-.51-1.12-4.87-12.38-17.09-15.81-20.71-.85-.88-1.34-1.38-1.34-1.38-.25-.27-.24-.7,.04-.96,.26-.26,.69-.25,.95,.02,0,0,.5,.51,1.34,1.39,9.05,9.38,20.01,19.4,23.6,19.4,.39,0,.52-.12,.56-.17,2.22-2.24,12.05-10.11,19.91-16.32,4.68-3.79,8.39-6.57,8.42-6.6,.3-.23,.73-.16,.94,.13,.23,.3,.18,.72-.13,.95,0,0-3.66,2.87-8.37,6.58-13.2,10.74-20.7,18.73-20.07,21.35,.32,1.33,2.63,4.01,14.59,7.03,5.97,1.01,11.13,2.25,11.72,2.4,.33,.04,.59,.33,.59,.68,0,.38-.3,.68-.68,.68h-.01s-.07,0-.11-.01c-.07,0-5.73-.88-11.81-2.41-5.29-.89-9.65-1.35-13-1.35-4.35,0-6.03,.78-6.68,1.43-.3,.33-.45,.69-.44,1.14,.15,7.61-7.42,56.55-7.75,58.64-.04,.33-.34,.57-.68,.57m1.65-63.81c.25,0,.48,.02,.69,.06,1.21,.22,4.16,.74,3.01,21.35,1.03-7.9,1.75-14.45,1.7-16.79-.01-.82,.27-1.54,.84-2.11,1.22-1.25,3.72-1.85,7.65-1.85,1.47,0,3.13,.1,4.98,.27-4.62-1.76-7.12-3.6-7.59-5.61-.39-1.59,.99-4.16,4.11-7.7-1.16,.98-2.04,1.76-2.54,2.27-.37,.37-.89,.58-1.52,.58-2.61,0-7.8-3.95-12.94-8.52,2.74,3.52,4.98,6.92,5.49,9.11,.17,.78-.08,1.34-.34,1.65-.68,.85-2.15,1.25-4.64,1.25-.92,0-1.97-.06-3.1-.16,.33,.11,.59,.22,.8,.31,.42,.19,.67,.53,.72,.96,.09,.71,.25,2.13-8.5,9.67,5.25-3.14,8.99-4.72,11.17-4.72"/>
        <path class="cls-2" d="M165.05,252.26c.92,3.8,1.36,7.86,3.52,6.18,2.15-1.67,5.2-9.98,5.2-9.98,0,0-4.92,12.52-2.78,13.29,2.14,.77,13.04-.31,13.04-.31,0,0-13.28-.5-15.42,1.22-2.14,1.7,1.06,8.8,1.06,8.8,0,0-2.91-10.85-5.9-9.37-3,1.49-24.7,7.83-24.7,7.83,0,0,26.04-7.64,25.21-10.73-.82-3.1-13.08-9.58-13.08-9.58,0,0,14.72,8.85,14.68,6.76-.02-2.08-1.74-7.87-.83-4.09"/>
        <path class="cls-3" d="M169.68,271.73c-.11,0-.22-.05-.27-.17-.05-.09-1.02-2.26-1.52-4.52-1.26-3.1-2.51-4.82-3.55-4.82-.14,0-.28,.03-.43,.11-3,1.47-23.87,7.59-24.76,7.85-.15,.04-.31-.05-.37-.2-.03-.16,.05-.31,.21-.36h0c10.71-3.15,25.54-8.43,25.02-10.39-.33-1.25-3.01-3.5-7.53-6.29-2.9-1.6-5.4-3.09-5.43-3.12-.13-.08-.18-.25-.1-.38,.08-.14,.25-.2,.39-.12,.02,.01,2.59,1.37,5.41,3.12,6.21,3.42,8.11,3.93,8.69,3.93,.13,0,.17-.04,.17-.04,0-.15-.03-.34-.05-.56-.15-.56-.27-1.17-.42-1.81-.12-.55-.24-1.1-.38-1.65-.32-1.36-.31-1.37-.2-1.5,.1-.14,.31-.2,.5,.18h.02s0,.02,0,.05c.49,1.09,1,4.3,1.05,4.61,.33,1.33,.8,2.86,1.53,2.86,.2,0,.45-.11,.72-.33,1.7-1.32,4.08-7.2,4.76-8.97,.21-.57,.35-.91,.35-.91,.06-.14,.21-.22,.37-.16,.15,.05,.23,.22,.17,.37,0,0-.13,.34-.34,.91-1.8,4.78-3.47,10.4-2.81,11.79,.07,.18,.18,.21,.21,.21,.06,.04,.13,.05,.21,.07,2.49-.37,6.03-.46,8.58-.46,2.34,0,4.13,.07,4.15,.07,.16,.01,.28,.13,.28,.28s-.11,.28-.26,.3c-.05,0-5.99,.58-9.93,.58-1.29,0-2.24-.07-2.84-.19-1.58,.26-2.22,.55-2.49,.75-.69,.56-.81,1.94-.35,4.01,.8,2.01,1.36,3.99,1.48,4.4,.04,.06,.05,.1,.05,.16,0,.16-.1,.29-.3,.29m-5.34-10.08c1.06,0,2.15,1.11,3.25,3.3-.04-1.21,.25-2.06,.84-2.54,.38-.3,1.04-.55,2.03-.75-.06-.05-.08-.12-.12-.18-.48-1.03,.02-3.59,.81-6.3-.81,1.53-1.66,2.89-2.41,3.48-.4,.3-.75,.45-1.09,.45-.86,0-1.38-.87-1.81-2.23-.1,.05-.24,.08-.42,.08-.71,0-2.14-.52-4.28-1.57,2.02,1.54,3.15,2.77,3.4,3.69,.36,1.34-3.26,3.28-7.92,5.17,3.33-1.07,6.07-2,7-2.45,.24-.11,.47-.16,.7-.16"/>
        <path class="cls-2" d="M101.91,241.94c-1.17,3.74-2.87,7.47-.15,7.13,2.72-.33,9.6-5.93,9.6-5.93,0,0-10.66,8.27-9.21,10.03,1.45,1.76,17.77,18.92,17.77,18.92,0,0-17.55-19.74-20.27-19.37-2.72,.36-3.62,8.15-3.62,8.15,0,0,3.09-10.86-.25-11.14-3.35-.28-10.68-3.65-10.68-3.65,0,0,11.73,4.52,12.61,1.41,.89-3.09-6.27-14.9-6.27-14.9,0,0,8.04,15.12,9.09,13.31,1.05-1.8,2.54-7.66,1.38-3.96"/>
        <path class="cls-3" d="M119.91,272.4c-.08,0-.16-.04-.22-.09-.07-.08-7.59-7.99-12.82-13.56-5.09-4.99-6.67-5.74-7.15-5.74-.92,.13-1.73,1.25-2.4,3.28-.39,2.44-1.02,4.65-1.02,4.68-.04,.14-.19,.23-.34,.21-.14-.04-.25-.18-.23-.31,.02-.11,.3-2.49,1.02-4.71,.45-2.93,.36-4.9-.28-5.72-.18-.25-.43-.38-.72-.4-3.36-.27-10.47-3.54-10.76-3.68-.15-.05-.22-.23-.16-.37,.06-.15,.23-.21,.37-.15,.06,0,6.49,2.47,10.07,2.47,1.26,0,2-.29,2.15-.88,.36-1.26-.78-4.55-3.23-9.27-1.65-2.84-3.01-5.4-3.01-5.42-.09-.14-.03-.32,.11-.39,.14-.08,.31-.03,.39,.1,.01,.03,1.51,2.5,3.02,5.44,4.36,7.51,5.4,7.9,5.57,7.9,.07-.15,.15-.33,.25-.52,.16-.54,.35-1.12,.55-1.71,.18-.54,.36-1.11,.54-1.67,.43-1.39,.44-1.41,.7-1.41,.09,0,.19,.05,.24,.14,.21,.31-1.09,3.97-1.49,4.88-.34,1.16-.7,2.55-.3,3.09,.16,.21,.48,.29,.96,.23,2.12-.25,7.17-4.09,8.68-5.25,.48-.39,.78-.61,.78-.61,.12-.1,.31-.08,.4,.05,.1,.12,.08,.32-.05,.4,0,0-.28,.24-.77,.62-3.98,3.2-8.31,7.16-8.46,8.7-.03,.2,.04,.28,.05,.3,.41,.5,2.06,2.29,4.93,5.33,5.53,5.42,12.16,12.85,12.79,13.54,.08,.05,.13,.15,.13,.24,0,.17-.13,.3-.3,.3h0Zm-28.38-24.04c1.59,.54,3.15,.99,4.27,1.09,.46,.03,.85,.24,1.13,.61,.57,.74,.78,2.12,.63,4.14,.59-1.07,1.27-1.67,2.05-1.77,.38-.07,1.01,.07,2.78,1.45-.21-.23-.37-.41-.46-.53-.17-.19-.22-.43-.2-.72,.12-1.15,1.87-3.09,3.93-5.02-1.48,.91-2.9,1.63-3.87,1.75-.71,.09-1.2-.07-1.49-.46-.41-.56-.32-1.5-.07-2.55-.31-.01-1.01-.22-3.26-3.69,.93,2.36,1.27,4,1.02,4.91-.24,.86-1.16,1.31-2.71,1.31-1.09,0-2.42-.22-3.75-.51"/>
        <path class="cls-3" d="M133.43,280.56c-.11,0-.22-.03-.34-.09-.32-.19-.43-.62-.25-.93l5.96-10.27c-.24-1.6-1.5-10.41-.98-14.82,.48-4.06-1.52-6.52-1.81-6.85l-8.72-6.38c-.31-.23-.37-.65-.16-.95,.21-.3,.65-.37,.95-.15l8.8,6.43s.05,.05,.08,.08c.12,.12,2.8,3.01,2.21,7.99-.53,4.56,1,14.58,1.02,14.69,.02,.14,0,.3-.1,.44l-6.07,10.47c-.14,.22-.36,.34-.6,.34"/>
        <path class="cls-3" d="M173.77,248.73s-.06,0-.08,0c-.16-.06-.24-.21-.19-.37,.04-.15,1.14-3.75,4.08-5.25,2.46-1.24,8.45-3.85,10.09-4.56-1.47-1.38-7.06-7.17-7.53-15.77-.12-2.06-.92-3.66-2.41-4.81-4.4-3.42-13.38-1.7-13.47-1.69-.08,.01-.16,0-.22-.04-.07-.06-.11-.13-.12-.2-1.22-7.88-4.04-20.36-6.43-20.36h-.06c-3.69,0-20-26.52-21.86-29.56-.07-.13-.04-.31,.1-.4,.13-.07,.32-.04,.39,.1,7.24,11.83,18.89,29.41,21.37,29.27h.05c3.56,0,6.45,17.39,6.96,20.56,1.65-.28,9.45-1.41,13.66,1.85,1.62,1.26,2.5,3.02,2.62,5.24,.54,9.6,7.6,15.61,7.67,15.66,.08,.07,.12,.17,.1,.27-.02,.1-.08,.18-.17,.24-.08,.02-7.65,3.28-10.48,4.72-2.69,1.37-3.77,4.86-3.77,4.89-.04,.13-.16,.21-.28,.21"/>
        <path class="cls-3" d="M151.2,249.88c-.06,0-.13-.01-.19-.06-2.54-2.03-15.18-12.26-13.42-14.72,1.44-2-.02-6.76-.33-7.68l-18.75-3.35s-.07-.02-.11-.04l-24.77-16.08-5.58,8.22c-.1,.14-.27,.17-.4,.08-.13-.09-.17-.27-.08-.4l5.74-8.45c.1-.13,.27-.17,.4-.08l24.96,16.2,18.87,3.37c.11,.01,.19,.09,.22,.19,.08,.24,2.06,5.91,.3,8.38-1.11,1.56,7.57,9.37,13.32,13.92,.11,.1,.14,.29,.03,.4-.05,.08-.13,.12-.22,.12"/>
        <path class="cls-3" d="M93.55,207.84c-.1,0-.19-.04-.24-.12l-5.74-8.45c-.09-.13-.05-.31,.08-.4,.13-.09,.31-.06,.4,.08l5.38,7.9c.45-1.65,1.66-6.37,2.2-10.15,.69-4.81,16.03-15.62,16.69-16.08,.13-.1,.31-.06,.4,.07,.09,.14,.06,.32-.08,.4-.16,.11-15.77,11.14-16.43,15.68-.67,4.7-2.36,10.8-2.37,10.86-.03,.11-.12,.19-.23,.21h-.05Z"/>
        <path class="cls-3" d="M91.52,232.52c-.11,0-.22-.06-.26-.17l-4.4-10.14c-.07-.16,0-.34,.15-.4,.15-.05,.32,0,.37,.16l4.4,10.15c.05,.13,0,.31-.15,.38-.04,.02-.07,.02-.12,.02"/>
        <path class="cls-3" d="M111.47,243.33c-.08,0-.16-.04-.22-.1-.1-.12-.1-.31,.03-.41,1.78-1.53,10.78-9.11,12.27-8.93,.17,.03,.27,.12,.32,.2,.51,.57,7.32,1.24,13.64,1.56,.15,0,.28,.14,.27,.3-.01,.17-.14,.28-.31,.28-3.07-.15-13.01-.74-14.03-1.76-.92,0-6.68,4.44-11.78,8.81-.06,.05-.12,.06-.19,.06"/>
        <path class="cls-3" d="M164.8,251.34c-.11,0-.22-.07-.27-.2-.01-.01-.33-.87-1.05-2.06-4.54-7.41-13.07-19.95-16.19-19.95-2.57,0-6.02-7.16-9.35-14.1-2.2-4.61-4.49-9.35-5.57-9.64-.07,0-.11,0-.13,.03-2.52,1.81-19.56,20.39-20.17,22.48-.68,2.41-9.15,12.53-9.51,12.95-.11,.13-.3,.14-.42,.03-.12-.1-.13-.28-.04-.41,.1-.11,8.76-10.45,9.42-12.73,.69-2.43,18.08-21.15,20.38-22.8,.19-.14,.4-.17,.63-.11,1.27,.32,3.08,3.98,5.93,9.93,2.95,6.15,6.62,13.78,8.83,13.78,4.07,0,14.6,16.84,16.69,20.22,.76,1.24,1.09,2.13,1.1,2.17,.05,.15-.03,.32-.17,.37-.03,.02-.07,.02-.11,.02"/>
        <path class="cls-3" d="M193.6,217.98c-.13,0-.24-.08-.28-.21l-5.04-17.13c-1.04-.76-10.17-7.34-12.14-9.45-2.04-2.2-6.95-14.75-7.15-15.29-.06-.16,.02-.33,.17-.38,.14-.06,.32,0,.37,.16,.06,.13,5.06,12.99,7.03,15.12,2.01,2.14,12.03,9.35,12.13,9.42,.05,.03,.09,.09,.12,.16l5.07,17.24c.04,.15-.05,.31-.2,.36-.03,0-.06,0-.08,0"/>
        <path class="cls-3" d="M187.67,239.11c-.12,0-.24-.07-.28-.18-.04-.17,.03-.33,.18-.39l6.76-2.36c.16-.05,.33,.03,.37,.18,.05,.15-.03,.32-.18,.38l-6.77,2.36s-.06,.01-.1,.01"/>
        <path class="cls-11" d="M61.74,425.24c0,4.28-.69,7.4-2.05,9.32-1.38,1.93-3.86,2.89-7.47,2.89s-6.09-.98-7.46-2.96c-1.37-1.97-2.05-5.07-2.05-9.32s.69-7.37,2.09-9.43c1.39-2.04,3.86-3.07,7.41-3.07s6.03,1.01,7.43,3.05c1.4,2.04,2.11,5.21,2.11,9.51m-16.29-.07c0,3.53,.47,6.07,1.38,7.6,.94,1.55,2.73,2.32,5.39,2.32s4.45-.75,5.36-2.27c.92-1.5,1.38-4.03,1.38-7.58s-.48-6.14-1.43-7.77c-.95-1.63-2.73-2.44-5.34-2.44s-4.39,.8-5.32,2.42c-.94,1.61-1.41,4.19-1.41,7.71"/>
        <path class="cls-11" d="M73.88,419.35c2.35,0,4,.68,4.93,2.01,.94,1.33,1.41,3.66,1.41,7.01s-.57,5.7-1.75,7.05c-1.18,1.36-3.32,2.04-6.45,2.04-.98,0-2.59-.09-4.84-.27l-.97-.1v-24.96h2.57v8.45c1.77-.82,3.47-1.22,5.11-1.22m-1.91,15.77c2.27,0,3.77-.51,4.5-1.55,.74-1.04,1.09-2.79,1.09-5.24s-.28-4.18-.86-5.16c-.59-1-1.63-1.49-3.1-1.49-1.34,0-2.73,.25-4.15,.76l-.7,.24v12.26c1.51,.12,2.58,.18,3.21,.18"/>
        <rect class="cls-11" x="84.72" y="412.12" width="2.6" height="24.99"/>
        <path class="cls-11" d="M92.55,412.74h2.6v3.03h-2.6v-3.03Zm0,6.96h2.6v17.41h-2.6v-17.41Z"/>
        <path class="cls-11" d="M106.67,419.36c.77,0,2.07,.13,3.91,.41l.83,.11-.1,2.13c-1.85-.21-3.23-.31-4.1-.31-1.97,0-3.32,.46-4.03,1.41-.71,.94-1.06,2.69-1.06,5.22s.32,4.31,.99,5.31c.65,.99,2.03,1.5,4.13,1.5l4.1-.32,.1,2.15c-2.16,.33-3.77,.49-4.83,.49-2.73,0-4.6-.69-5.63-2.09-1.03-1.38-1.56-3.74-1.56-7.05s.57-5.63,1.68-6.96c1.11-1.33,2.97-2,5.56-2"/>
        <polygon class="cls-11" points="114.29 422.04 114.29 419.7 127.21 419.7 127.21 422.04 117.46 434.78 127.21 434.78 127.21 437.11 114.29 437.11 114.29 434.78 124.03 422.04 114.29 422.04"/>
        <path class="cls-11" d="M142.9,434.95l1.02-.1,.07,2.05c-2.64,.37-4.91,.56-6.78,.56-2.51,0-4.28-.72-5.32-2.18-1.05-1.44-1.58-3.71-1.58-6.76,0-6.11,2.44-9.16,7.28-9.16,2.34,0,4.09,.65,5.25,1.96,1.17,1.32,1.74,3.38,1.74,6.19l-.13,1.97h-11.48c0,1.93,.34,3.37,1.03,4.29,.7,.93,1.91,1.39,3.65,1.39s3.48-.07,5.26-.21m-.93-7.55c0-2.14-.34-3.64-1.03-4.52-.68-.88-1.8-1.33-3.34-1.33s-2.69,.46-3.47,1.39c-.78,.92-1.18,2.41-1.2,4.45h9.05Z"/>
        <path class="cls-11" d="M151.26,437.11h-2.6v-17.41h2.57v1.22c1.89-1.04,3.68-1.56,5.4-1.56,2.32,0,3.88,.63,4.68,1.88,.79,1.25,1.2,3.47,1.2,6.69v9.19h-2.58v-9.12c0-2.41-.24-4.07-.71-4.96-.47-.89-1.49-1.34-3.04-1.34-.75,0-1.53,.11-2.35,.32-.82,.23-1.45,.44-1.9,.65l-.67,.31v14.13Z"/>
        <path class="cls-11" d="M167.34,412.74h2.61v3.03h-2.61v-3.03Zm0,6.96h2.61v17.41h-2.61v-17.41Z"/>
        <path class="cls-11" d="M174.2,428.37c0-3.18,.57-5.48,1.72-6.88,1.13-1.43,3.05-2.13,5.75-2.13s4.63,.7,5.75,2.13c1.12,1.4,1.69,3.7,1.69,6.88s-.54,5.49-1.6,6.92c-1.07,1.44-3.01,2.16-5.85,2.16s-4.78-.72-5.85-2.16c-1.06-1.44-1.6-3.74-1.6-6.92m2.68-.05c0,2.54,.31,4.32,.92,5.34,.62,1.03,1.91,1.53,3.87,1.53s3.25-.51,3.85-1.52c.61-1.01,.9-2.8,.9-5.34s-.33-4.31-1-5.28c-.68-.97-1.93-1.44-3.75-1.44s-3.06,.48-3.77,1.44c-.68,.97-1.02,2.72-1.02,5.26"/>
        <polygon class="cls-11" points="191.75 419.7 194.35 419.7 197.87 434.85 198.42 434.85 202.57 420.05 205.28 420.05 209.43 434.85 210.02 434.85 213.5 419.7 216.12 419.7 211.97 437.11 207.61 437.11 203.93 423.5 200.23 437.11 195.89 437.11 191.75 419.7"/>
        <path class="cls-11" d="M231.35,434.95l1.01-.1,.07,2.05c-2.65,.37-4.91,.56-6.79,.56-2.5,0-4.28-.72-5.32-2.18-1.04-1.44-1.56-3.71-1.56-6.76,0-6.11,2.41-9.16,7.27-9.16,2.34,0,4.1,.65,5.26,1.96,1.15,1.32,1.73,3.38,1.73,6.19l-.14,1.97h-11.48c0,1.93,.35,3.37,1.05,4.29,.69,.93,1.91,1.39,3.63,1.39s3.5-.07,5.27-.21m-.94-7.55c0-2.14-.35-3.64-1.02-4.52-.68-.88-1.8-1.33-3.35-1.33s-2.7,.46-3.49,1.39c-.77,.92-1.17,2.41-1.2,4.45h9.05Z"/>
        <path class="cls-11" d="M237.13,436.66v-16.96h2.58v16.99c0,2.13-.38,3.73-1.15,4.8-.76,1.06-2.31,2.19-4.62,3.38l-1.05-2.03c1.82-1.05,2.97-1.93,3.48-2.66,.51-.73,.77-1.91,.77-3.53m0-23.92h2.58v3.03h-2.58v-3.03Z"/>
        <polygon class="cls-11" points="47.44 356.62 42.7 356.62 42.7 314 47.44 314 47.44 333.83 54.47 333.58 65.35 314 70.78 314 58.59 335.43 71.46 356.62 65.85 356.62 54.52 337.77 47.44 338.02 47.44 356.62"/>
        <path class="cls-11" d="M98.68,335.13v15.77c.13,1.52,1.32,2.41,3.58,2.71l-.19,3.63c-3.24,0-5.69-.81-7.33-2.46-3.69,1.64-7.38,2.46-11.09,2.46-2.82,0-4.99-.8-6.45-2.4-1.49-1.6-2.22-3.9-2.22-6.9s.76-5.2,2.28-6.61c1.52-1.42,3.9-2.29,7.14-2.63l9.67-.92v-2.65c0-2.09-.45-3.59-1.35-4.5-.91-.9-2.13-1.35-3.7-1.35-3.29,0-6.7,.2-10.21,.6l-1.92,.18-.19-3.5c4.52-.91,8.52-1.36,12.01-1.36s6.04,.8,7.61,2.4c1.58,1.6,2.37,4.11,2.37,7.52m-18.96,12.56c0,3.78,1.56,5.67,4.68,5.67,2.8,0,5.54-.46,8.25-1.42l1.42-.49v-10.16l-9.12,.87c-1.85,.17-3.18,.69-4,1.6-.83,.91-1.23,2.21-1.23,3.94"/>
        <path class="cls-11" d="M123.75,329.82h-9.79v14.72c0,3.53,.25,5.85,.76,6.95,.52,1.1,1.74,1.66,3.67,1.66l5.48-.36,.31,3.82c-2.75,.44-4.85,.68-6.28,.68-3.19,0-5.42-.78-6.64-2.35-1.24-1.56-1.86-4.53-1.86-8.92v-16.2h-4.37v-4h4.37v-9.42h4.57v9.42h9.79v4Z"/>
        <path class="cls-11" d="M150.35,352.8l1.79-.19,.13,3.65c-4.69,.65-8.69,.98-12.01,.98-4.44,0-7.58-1.28-9.42-3.84-1.85-2.57-2.78-6.57-2.78-11.98,0-10.8,4.29-16.2,12.88-16.2,4.15,0,7.24,1.16,9.3,3.47,2.05,2.32,3.08,5.97,3.08,10.94l-.24,3.5h-20.32c0,3.41,.62,5.93,1.84,7.58s3.39,2.46,6.44,2.46,6.16-.11,9.33-.36m-1.66-13.37c0-3.78-.61-6.45-1.81-8-1.21-1.56-3.19-2.34-5.92-2.34s-4.79,.83-6.16,2.46c-1.38,1.64-2.09,4.28-2.13,7.88h16.01Z"/>
        <path class="cls-11" d="M184.16,312.4v44.22h-4.55v-2.09c-3.16,1.8-6.29,2.7-9.37,2.7-1.63,0-3.08-.2-4.31-.61-1.23-.41-2.38-1.15-3.44-2.22-2.22-2.22-3.33-6.31-3.33-12.29s.99-10.27,2.99-12.93c1.99-2.65,5.29-3.97,9.88-3.97,2.38,0,4.91,.26,7.58,.8v-13.61h4.55Zm-16.01,40.28c.74,.28,1.69,.43,2.87,.43s2.48-.2,3.94-.59c1.46-.39,2.59-.77,3.42-1.14l1.24-.55v-20.88c-2.63-.49-5.08-.74-7.33-.74-3.12,0-5.3,1-6.53,2.99-1.23,1.99-1.85,5.07-1.85,9.26,0,4.77,.72,7.96,2.15,9.61,.66,.78,1.35,1.31,2.1,1.61"/>
        <path class="cls-11" d="M193.09,356.62v-30.8h4.56v4.19c3.57-2.46,7.32-4.09,11.27-4.87v4.68c-1.72,.33-3.51,.85-5.39,1.54-1.87,.7-3.3,1.31-4.27,1.84l-1.54,.81v22.61h-4.62Z"/>
        <path class="cls-11" d="M236.14,335.13v15.77c.13,1.52,1.31,2.41,3.58,2.71l-.19,3.63c-3.24,0-5.69-.81-7.33-2.46-3.69,1.64-7.38,2.46-11.09,2.46-2.83,0-4.98-.8-6.46-2.4-1.49-1.6-2.21-3.9-2.21-6.9s.75-5.2,2.28-6.61c1.52-1.42,3.89-2.29,7.15-2.63l9.67-.92v-2.65c0-2.09-.46-3.59-1.36-4.5-.91-.9-2.13-1.35-3.69-1.35-3.28,0-6.68,.2-10.23,.6l-1.91,.18-.19-3.5c4.52-.91,8.53-1.36,12.01-1.36s6.02,.8,7.61,2.4c1.57,1.6,2.37,4.11,2.37,7.52m-18.97,12.56c0,3.78,1.56,5.67,4.69,5.67,2.79,0,5.53-.46,8.25-1.42l1.42-.49v-10.16l-9.13,.87c-1.84,.17-3.17,.69-3.99,1.6-.83,.91-1.24,2.21-1.24,3.94"/>
        <rect class="cls-11" x="42.7" y="367.09" width="3.48" height="31.28"/>
        <path class="cls-11" d="M56.62,398.37h-3.39v-22.59h3.35v1.58c2.44-1.35,4.77-2.02,7-2.02,3.01,0,5.04,.81,6.08,2.43,1.03,1.63,1.56,4.52,1.56,8.68v11.93h-3.34v-11.84c0-3.13-.31-5.28-.94-6.45-.61-1.15-1.94-1.72-3.95-1.72-.97,0-1.99,.13-3.06,.42-1.06,.28-1.88,.56-2.46,.83l-.86,.4v18.36Z"/>
        <path class="cls-11" d="M89.07,378.71h-7.2v10.8c0,2.59,.2,4.3,.58,5.11,.37,.81,1.27,1.22,2.69,1.22l4.02-.27,.23,2.8c-2.02,.34-3.57,.49-4.61,.49-2.35,0-3.98-.57-4.88-1.71-.89-1.15-1.36-3.34-1.36-6.56v-11.89h-3.21v-2.93h3.21v-6.91h3.34v6.91h7.2v2.93Z"/>
        <path class="cls-11" d="M108.59,395.58l1.31-.14,.1,2.68c-3.44,.46-6.37,.71-8.81,.71-3.26,0-5.55-.94-6.91-2.82-1.35-1.88-2.03-4.82-2.03-8.79,0-7.92,3.15-11.88,9.45-11.88,3.04,0,5.32,.85,6.82,2.55,1.5,1.7,2.25,4.38,2.25,8.02l-.18,2.58h-14.92c0,2.5,.46,4.35,1.36,5.56,.9,1.21,2.47,1.81,4.72,1.81s4.52-.09,6.84-.27m-1.22-9.82c0-2.77-.45-4.73-1.34-5.87-.88-1.14-2.33-1.71-4.33-1.71s-3.51,.6-4.53,1.8c-1.01,1.2-1.53,3.14-1.55,5.78h11.75Z"/>
        <rect class="cls-11" x="116.33" y="365.92" width="3.39" height="32.45"/>
        <path class="cls-11" d="M126.5,366.74h3.39v3.93h-3.39v-3.93Zm0,9.04h3.39v22.59h-3.39v-22.59Z"/>
        <path class="cls-11" d="M145.11,408.98c-3.61,0-6.14-.48-7.57-1.46-1.43-.98-2.14-2.77-2.14-5.36,0-1.23,.26-2.23,.81-3,.54-.77,1.47-1.63,2.75-2.61-.83-.56-1.26-1.6-1.26-3.11,0-.51,.38-1.46,1.13-2.84l.41-.72c-2.39-1.08-3.58-3.35-3.58-6.83,0-5.15,2.83-7.72,8.46-7.72,1.44,0,2.79,.14,4.01,.45l.68,.13,6.7-.18v2.89l-4.3-.08c1,.98,1.49,2.49,1.49,4.51,0,2.84-.7,4.81-2.09,5.94-1.41,1.13-3.62,1.71-6.62,1.71-.81,0-1.55-.07-2.21-.19-.55,1.34-.81,2.18-.81,2.57,0,.93,.28,1.51,.86,1.74,.57,.23,2.31,.34,5.19,.34s4.97,.45,6.24,1.36c1.27,.9,1.89,2.66,1.89,5.28,0,4.79-3.33,7.18-10.03,7.18m-6.36-7.08c0,1.59,.44,2.7,1.33,3.32,.88,.62,2.53,.93,4.92,.93s4.12-.33,5.16-1c1.04-.66,1.56-1.76,1.56-3.31s-.38-2.56-1.13-3.01c-.75-.45-2.23-.68-4.43-.68l-4.87-.23c-1,.73-1.67,1.36-2.02,1.91-.34,.54-.51,1.23-.51,2.08m.32-18.85c0,1.78,.4,3.04,1.19,3.8,.79,.76,2.11,1.14,3.95,1.14s3.16-.38,3.93-1.14c.78-.75,1.18-2.03,1.18-3.82s-.4-3.07-1.18-3.83c-.77-.74-2.09-1.12-3.93-1.12s-3.16,.39-3.95,1.16c-.79,.76-1.19,2.03-1.19,3.81"/>
        <path class="cls-11" d="M174.99,395.58l1.31-.14,.1,2.68c-3.44,.46-6.38,.71-8.81,.71-3.27,0-5.56-.94-6.91-2.82-1.36-1.88-2.04-4.82-2.04-8.79,0-7.92,3.14-11.88,9.44-11.88,3.04,0,5.32,.85,6.83,2.55,1.51,1.7,2.26,4.38,2.26,8.02l-.18,2.58h-14.93c0,2.5,.46,4.35,1.37,5.56,.89,1.21,2.47,1.81,4.72,1.81s4.53-.09,6.85-.27m-1.22-9.82c0-2.77-.44-4.73-1.33-5.87-.89-1.14-2.33-1.71-4.33-1.71s-3.51,.6-4.53,1.8c-1,1.2-1.52,3.14-1.55,5.78h11.75Z"/>
        <path class="cls-11" d="M185.84,398.37h-3.39v-22.59h3.35v1.58c2.44-1.35,4.78-2.02,7-2.02,3.02,0,5.04,.81,6.08,2.43,1.04,1.63,1.57,4.52,1.57,8.68v11.93h-3.36v-11.84c0-3.13-.31-5.28-.92-6.45-.61-1.15-1.93-1.72-3.95-1.72-.97,0-1.99,.13-3.05,.42-1.06,.28-1.9,.56-2.46,.83l-.86,.4v18.36Z"/>
        <path class="cls-11" d="M215.17,375.33c1,0,2.68,.18,5.07,.54l1.07,.13-.13,2.75c-2.4-.27-4.17-.4-5.32-.4-2.57,0-4.3,.6-5.23,1.82-.92,1.22-1.37,3.49-1.37,6.78s.43,5.6,1.28,6.9c.87,1.3,2.65,1.94,5.37,1.94l5.34-.4,.13,2.8c-2.81,.42-4.9,.63-6.29,.63-3.53,0-5.96-.91-7.3-2.71-1.33-1.81-2.01-4.85-2.01-9.16s.72-7.3,2.17-9.03c1.44-1.74,3.85-2.6,7.22-2.6"/>
        <path class="cls-11" d="M226.47,397.79v-22.02h3.34v22.06c0,2.76-.49,4.84-1.49,6.23-1,1.39-2.99,2.86-6.01,4.39l-1.36-2.63c2.35-1.35,3.86-2.51,4.52-3.45,.66-.95,1-2.47,1-4.58m0-31.06h3.34v3.93h-3.34v-3.93Z"/>
        <path class="cls-11" d="M236.32,366.74h3.39v3.93h-3.39v-3.93Zm0,9.04h3.39v22.59h-3.39v-22.59Z"/>
      </g>
    </g>
  </g>
</svg>